<svg xmlns="http://www.w3.org/2000/svg" viewBox="0 0 512 512" role="img" aria-labelledby="title desc">
  <title id="title">In4Up Hidden Gift — Quiet Reveal</title>
  <desc id="desc">A simplified In4Up mark where n and p quietly recede, leaving I4U and an upward four.</desc>
  <defs>
    <linearGradient id="bg" x1="52" y1="40" x2="458" y2="474" gradientUnits="userSpaceOnUse">
      <stop stop-color="#163148"/>
      <stop offset="0.55" stop-color="#091A2A"/>
      <stop offset="1" stop-color="#06121E"/>
    </linearGradient>
    <linearGradient id="rise" x1="207" y1="344" x2="268" y2="116" gradientUnits="userSpaceOnUse">
      <stop stop-color="#53D6BD"/>
      <stop offset="1" stop-color="#F4C95D"/>
    </linearGradient>
    <radialGradient id="glow" cx="0" cy="0" r="1" gradientTransform="translate(252 255) rotate(90) scale(208)" gradientUnits="userSpaceOnUse">
      <stop stop-color="#53D6BD" stop-opacity="0.12"/>
      <stop offset="1" stop-color="#53D6BD" stop-opacity="0"/>
    </radialGradient>
    <filter id="shadow" x="-20%" y="-20%" width="140%" height="140%"><feDropShadow dx="0" dy="12" stdDeviation="16" flood-color="#000813" flood-opacity="0.48"/></filter>
  </defs>

  <rect x="16" y="16" width="480" height="480" rx="112" fill="url(#bg)" filter="url(#shadow)"/>
  <rect x="17" y="17" width="478" height="478" rx="111" fill="none" stroke="#FFFFFF" stroke-opacity="0.08" stroke-width="2"/>
  <circle cx="256" cy="256" r="208" fill="url(#glow)"/>
  <path d="M117 159C157 107 222 84 284 95C334 104 376 132 402 172" fill="none" stroke="#F4C95D" stroke-opacity="0.12" stroke-width="7" stroke-linecap="round"/>
  <path d="M395 350C358 402 294 426 231 417C179 410 135 381 107 341" fill="none" stroke="#53D6BD" stroke-opacity="0.14" stroke-width="7" stroke-linecap="round"/>

  <g fill="none" stroke-linecap="round" stroke-linejoin="round">
    <path d="M47 192H91M69 192V330M47 330H91" stroke="#F8F4EA" stroke-width="21"/>
    <path d="M112 330V237C112 210 129 194 151 194C175 194 190 211 190 238V330" stroke="#73D8C7" stroke-opacity="0.24" stroke-width="22"/>
    <path d="M247 334V178L197 269H279" stroke="url(#rise)" stroke-width="25"/>
    <path d="M300 198V273C300 313 316 333 343 333C370 333 386 313 386 273V198" stroke="#F8F4EA" stroke-width="24"/>
    <path d="M414 377V199M414 203H440C461 203 473 218 473 239C473 260 460 275 440 275H414" stroke="#73D8C7" stroke-opacity="0.24" stroke-width="21"/>
  </g>
  <path d="M247 119L216 180H278L247 119Z" fill="#F4C95D"/>
  <path d="M156 359H356" stroke="#D8EFEA" stroke-opacity="0.18" stroke-width="3" stroke-linecap="round"/>
  <g fill="#53D6BD"><circle cx="222" cy="389" r="4" opacity="0.35"/><circle cx="245" cy="389" r="4" opacity="0.55"/><circle cx="268" cy="389" r="4" opacity="0.75"/><circle cx="291" cy="389" r="4"/></g>
</svg>
